<svg xmlns="http://www.w3.org/2000/svg" version="1.1" xmlns:xlink="http://www.w3.org/1999/xlink" xmlns:svgjs="http://svgjs.com/svgjs" width="1440" height="560" preserveAspectRatio="none" viewBox="0 0 1440 560"><g mask="url(&quot;#SvgjsMask1011&quot;)" fill="none"><rect width="1440" height="560" x="0" y="0" fill="rgba(81, 46, 95, 1)"></rect><path d="M0,373.079C75.388,374.465,158.168,385.381,219.329,341.283C279.888,297.619,281.298,210.357,316.783,144.67C355.631,72.756,441.281,18.727,437.689,-62.93C434.097,-144.585,353.373,-198.06,299.02,-259.102C245.428,-319.289,197.433,-387.483,122.437,-416.981C44.026,-447.822,-43.028,-445.158,-125.056,-425.901C-210.308,-405.887,-293.635,-370.275,-352.535,-305.473C-412.144,-239.891,-447.215,-153.565,-452.972,-65.128C-458.5,19.803,-427.578,102.283,-383.829,175.289C-343.286,242.944,-284.319,297.183,-214.207,333.312C-148.318,367.265,-74.11,371.716,0,373.079" fill="#351e3e"></path><path d="M1440 1188.5929999999998C1555.022 1201.673 1647.564 1094.88 1734.959 1018.9639999999999 1812.3980000000001 951.696 1873.674 870.793 1914.287 776.5989999999999 1954.238 683.94 1976.81 584.716 1965.42 484.456 1953.809 382.249 1920.801 279.298 1849.3809999999999 205.269 1779.565 132.902 1679.209 98.34899999999999 1579.606 84.54700000000003 1488.752 71.957 1404.1 113.60199999999998 1314.06 131.08800000000002 1212.768 150.75900000000001 1086.695 117.36500000000001 1017.3199999999999 193.74599999999998 948.116 269.938 1004.7860000000001 393.627 984.034 494.442 961.383 604.483 845.394 708.057 890.249 811.063 934.918 913.642 1092.989 893.111 1185.218 956.448 1281.887 1022.8340000000001 1323.482 1175.3429999999998 1440 1188.5929999999998" fill="#6d3e80"></path></g><defs><mask id="SvgjsMask1011"><rect width="1440" height="560" fill="#ffffff"></rect></mask></defs></svg>